<mxfile host="Electron" agent="Mozilla/5.0 (Windows NT 10.0; Win64; x64) AppleWebKit/537.36 (KHTML, like Gecko) draw.io/27.0.9 Chrome/134.0.6998.205 Electron/35.4.0 Safari/537.36" version="27.0.9">
  <diagram name="Page-1" id="JWToOqe6TWLVWBgQtZUT">
    <mxGraphModel dx="786" dy="516" grid="1" gridSize="10" guides="1" tooltips="1" connect="1" arrows="1" fold="1" page="1" pageScale="1" pageWidth="1100" pageHeight="850" math="0" shadow="0">
      <root>
        <mxCell id="0" />
        <mxCell id="1" parent="0" />
        <mxCell id="E4jLoLpAVNBP-Go-cii5-1" value="" style="rounded=1;whiteSpace=wrap;html=1;fillColor=#FFDEB0;strokeColor=#d6b656;gradientColor=#FF9F2D;" vertex="1" parent="1">
          <mxGeometry x="200" y="110" width="230" height="380" as="geometry" />
        </mxCell>
        <mxCell id="E4jLoLpAVNBP-Go-cii5-10" value="" style="rounded=1;whiteSpace=wrap;html=1;fillColor=#f5f5f5;strokeColor=#666666;gradientColor=#b3b3b3;" vertex="1" parent="1">
          <mxGeometry x="470" y="110" width="230" height="380" as="geometry" />
        </mxCell>
        <mxCell id="E4jLoLpAVNBP-Go-cii5-28" style="edgeStyle=orthogonalEdgeStyle;rounded=0;orthogonalLoop=1;jettySize=auto;html=1;" edge="1" parent="1" source="E4jLoLpAVNBP-Go-cii5-2" target="E4jLoLpAVNBP-Go-cii5-11">
          <mxGeometry relative="1" as="geometry" />
        </mxCell>
        <mxCell id="E4jLoLpAVNBP-Go-cii5-2" value="CRM_CUSTOMER_INFO" style="rounded=0;whiteSpace=wrap;html=1;" vertex="1" parent="1">
          <mxGeometry x="210" y="150" width="210" height="40" as="geometry" />
        </mxCell>
        <mxCell id="E4jLoLpAVNBP-Go-cii5-29" style="edgeStyle=orthogonalEdgeStyle;rounded=0;orthogonalLoop=1;jettySize=auto;html=1;" edge="1" parent="1" source="E4jLoLpAVNBP-Go-cii5-3" target="E4jLoLpAVNBP-Go-cii5-12">
          <mxGeometry relative="1" as="geometry" />
        </mxCell>
        <mxCell id="E4jLoLpAVNBP-Go-cii5-3" value="CRM_PRODUCT_INFO" style="rounded=0;whiteSpace=wrap;html=1;" vertex="1" parent="1">
          <mxGeometry x="210" y="200" width="210" height="40" as="geometry" />
        </mxCell>
        <mxCell id="E4jLoLpAVNBP-Go-cii5-30" style="edgeStyle=orthogonalEdgeStyle;rounded=0;orthogonalLoop=1;jettySize=auto;html=1;" edge="1" parent="1" source="E4jLoLpAVNBP-Go-cii5-4" target="E4jLoLpAVNBP-Go-cii5-13">
          <mxGeometry relative="1" as="geometry" />
        </mxCell>
        <mxCell id="E4jLoLpAVNBP-Go-cii5-4" value="CRM_SALES_DETAILS" style="rounded=0;whiteSpace=wrap;html=1;" vertex="1" parent="1">
          <mxGeometry x="210" y="250" width="210" height="40" as="geometry" />
        </mxCell>
        <mxCell id="E4jLoLpAVNBP-Go-cii5-31" style="edgeStyle=orthogonalEdgeStyle;rounded=0;orthogonalLoop=1;jettySize=auto;html=1;" edge="1" parent="1" source="E4jLoLpAVNBP-Go-cii5-5" target="E4jLoLpAVNBP-Go-cii5-14">
          <mxGeometry relative="1" as="geometry" />
        </mxCell>
        <mxCell id="E4jLoLpAVNBP-Go-cii5-5" value="&lt;div&gt;ERP_CUSTOMER_INFO&lt;/div&gt;" style="rounded=0;whiteSpace=wrap;html=1;" vertex="1" parent="1">
          <mxGeometry x="210" y="310" width="210" height="40" as="geometry" />
        </mxCell>
        <mxCell id="E4jLoLpAVNBP-Go-cii5-32" style="edgeStyle=orthogonalEdgeStyle;rounded=0;orthogonalLoop=1;jettySize=auto;html=1;" edge="1" parent="1" source="E4jLoLpAVNBP-Go-cii5-6" target="E4jLoLpAVNBP-Go-cii5-15">
          <mxGeometry relative="1" as="geometry" />
        </mxCell>
        <mxCell id="E4jLoLpAVNBP-Go-cii5-6" value="ERP_CUSTOMER_COUNTRY" style="rounded=0;whiteSpace=wrap;html=1;" vertex="1" parent="1">
          <mxGeometry x="210" y="360" width="210" height="40" as="geometry" />
        </mxCell>
        <mxCell id="E4jLoLpAVNBP-Go-cii5-33" style="edgeStyle=orthogonalEdgeStyle;rounded=0;orthogonalLoop=1;jettySize=auto;html=1;" edge="1" parent="1" source="E4jLoLpAVNBP-Go-cii5-7" target="E4jLoLpAVNBP-Go-cii5-16">
          <mxGeometry relative="1" as="geometry" />
        </mxCell>
        <mxCell id="E4jLoLpAVNBP-Go-cii5-7" value="ERP_PRODUCT_CATEGORIES" style="rounded=0;whiteSpace=wrap;html=1;" vertex="1" parent="1">
          <mxGeometry x="210" y="410" width="210" height="40" as="geometry" />
        </mxCell>
        <mxCell id="E4jLoLpAVNBP-Go-cii5-9" value="&lt;font style=&quot;font-size: 24px;&quot;&gt;Bronze&lt;/font&gt;" style="rounded=0;whiteSpace=wrap;html=1;" vertex="1" parent="1">
          <mxGeometry x="220" y="70" width="190" height="60" as="geometry" />
        </mxCell>
        <mxCell id="E4jLoLpAVNBP-Go-cii5-11" value="CRM_CUSTOMER_INFO" style="rounded=0;whiteSpace=wrap;html=1;" vertex="1" parent="1">
          <mxGeometry x="480" y="150" width="210" height="40" as="geometry" />
        </mxCell>
        <mxCell id="E4jLoLpAVNBP-Go-cii5-12" value="CRM_PRODUCT_INFO" style="rounded=0;whiteSpace=wrap;html=1;" vertex="1" parent="1">
          <mxGeometry x="480" y="200" width="210" height="40" as="geometry" />
        </mxCell>
        <mxCell id="E4jLoLpAVNBP-Go-cii5-13" value="CRM_SALES_DETAILS" style="rounded=0;whiteSpace=wrap;html=1;" vertex="1" parent="1">
          <mxGeometry x="480" y="250" width="210" height="40" as="geometry" />
        </mxCell>
        <mxCell id="E4jLoLpAVNBP-Go-cii5-14" value="&lt;div&gt;ERP_CUSTOMER_INFO&lt;/div&gt;" style="rounded=0;whiteSpace=wrap;html=1;" vertex="1" parent="1">
          <mxGeometry x="480" y="310" width="210" height="40" as="geometry" />
        </mxCell>
        <mxCell id="E4jLoLpAVNBP-Go-cii5-15" value="ERP_CUSTOMER_COUNTRY" style="rounded=0;whiteSpace=wrap;html=1;" vertex="1" parent="1">
          <mxGeometry x="480" y="360" width="210" height="40" as="geometry" />
        </mxCell>
        <mxCell id="E4jLoLpAVNBP-Go-cii5-16" value="ERP_PRODUCT_CATEGORIES" style="rounded=0;whiteSpace=wrap;html=1;" vertex="1" parent="1">
          <mxGeometry x="480" y="410" width="210" height="40" as="geometry" />
        </mxCell>
        <mxCell id="E4jLoLpAVNBP-Go-cii5-17" value="&lt;font style=&quot;font-size: 24px;&quot;&gt;Silver&lt;/font&gt;" style="rounded=0;whiteSpace=wrap;html=1;" vertex="1" parent="1">
          <mxGeometry x="490" y="70" width="190" height="60" as="geometry" />
        </mxCell>
        <mxCell id="E4jLoLpAVNBP-Go-cii5-34" value="" style="rounded=0;whiteSpace=wrap;html=1;" vertex="1" parent="1">
          <mxGeometry y="100" width="160" height="400" as="geometry" />
        </mxCell>
        <mxCell id="E4jLoLpAVNBP-Go-cii5-36" value="&lt;font style=&quot;font-size: 24px;&quot;&gt;Sources&lt;/font&gt;" style="rounded=1;whiteSpace=wrap;html=1;" vertex="1" parent="1">
          <mxGeometry x="17.5" y="60" width="125" height="60" as="geometry" />
        </mxCell>
        <mxCell id="E4jLoLpAVNBP-Go-cii5-37" value="" style="rounded=1;whiteSpace=wrap;html=1;fillColor=#fff2cc;strokeColor=#d6b656;gradientColor=#ffd966;" vertex="1" parent="1">
          <mxGeometry x="740" y="110" width="230" height="380" as="geometry" />
        </mxCell>
        <mxCell id="E4jLoLpAVNBP-Go-cii5-44" value="&lt;font style=&quot;font-size: 24px;&quot;&gt;Gold&lt;/font&gt;" style="rounded=0;whiteSpace=wrap;html=1;" vertex="1" parent="1">
          <mxGeometry x="760" y="70" width="190" height="60" as="geometry" />
        </mxCell>
        <mxCell id="E4jLoLpAVNBP-Go-cii5-56" style="rounded=0;orthogonalLoop=1;jettySize=auto;html=1;edgeStyle=entityRelationEdgeStyle;elbow=vertical;" edge="1" parent="1" source="E4jLoLpAVNBP-Go-cii5-47" target="E4jLoLpAVNBP-Go-cii5-2">
          <mxGeometry relative="1" as="geometry" />
        </mxCell>
        <mxCell id="E4jLoLpAVNBP-Go-cii5-59" style="edgeStyle=entityRelationEdgeStyle;rounded=0;orthogonalLoop=1;jettySize=auto;html=1;" edge="1" parent="1" source="E4jLoLpAVNBP-Go-cii5-47" target="E4jLoLpAVNBP-Go-cii5-3">
          <mxGeometry relative="1" as="geometry" />
        </mxCell>
        <mxCell id="E4jLoLpAVNBP-Go-cii5-60" style="edgeStyle=entityRelationEdgeStyle;rounded=0;orthogonalLoop=1;jettySize=auto;html=1;" edge="1" parent="1" source="E4jLoLpAVNBP-Go-cii5-47" target="E4jLoLpAVNBP-Go-cii5-4">
          <mxGeometry relative="1" as="geometry" />
        </mxCell>
        <mxCell id="E4jLoLpAVNBP-Go-cii5-47" value="" style="image;aspect=fixed;html=1;points=[];align=center;fontSize=12;image=img/lib/azure2/general/Folder_Blank.svg;" vertex="1" parent="1">
          <mxGeometry x="25.77" y="147" width="105.96" height="86" as="geometry" />
        </mxCell>
        <mxCell id="E4jLoLpAVNBP-Go-cii5-48" value="" style="image;aspect=fixed;html=1;points=[];align=center;fontSize=12;image=img/lib/azure2/general/File.svg;" vertex="1" parent="1">
          <mxGeometry x="85.25" y="178" width="56.00000000000001" height="69" as="geometry" />
        </mxCell>
        <mxCell id="E4jLoLpAVNBP-Go-cii5-52" value="&lt;font style=&quot;font-size: 36px;&quot;&gt;CRM&lt;/font&gt;" style="rounded=0;whiteSpace=wrap;html=1;strokeColor=none;fillColor=none;" vertex="1" parent="1">
          <mxGeometry x="18.75" y="233" width="120" height="60" as="geometry" />
        </mxCell>
        <mxCell id="E4jLoLpAVNBP-Go-cii5-62" style="edgeStyle=entityRelationEdgeStyle;rounded=0;orthogonalLoop=1;jettySize=auto;html=1;" edge="1" parent="1" source="E4jLoLpAVNBP-Go-cii5-53" target="E4jLoLpAVNBP-Go-cii5-5">
          <mxGeometry relative="1" as="geometry" />
        </mxCell>
        <mxCell id="E4jLoLpAVNBP-Go-cii5-63" style="edgeStyle=entityRelationEdgeStyle;rounded=0;orthogonalLoop=1;jettySize=auto;html=1;" edge="1" parent="1" source="E4jLoLpAVNBP-Go-cii5-53" target="E4jLoLpAVNBP-Go-cii5-6">
          <mxGeometry relative="1" as="geometry" />
        </mxCell>
        <mxCell id="E4jLoLpAVNBP-Go-cii5-64" style="edgeStyle=entityRelationEdgeStyle;rounded=0;orthogonalLoop=1;jettySize=auto;html=1;" edge="1" parent="1" source="E4jLoLpAVNBP-Go-cii5-53" target="E4jLoLpAVNBP-Go-cii5-7">
          <mxGeometry relative="1" as="geometry" />
        </mxCell>
        <mxCell id="E4jLoLpAVNBP-Go-cii5-53" value="" style="image;aspect=fixed;html=1;points=[];align=center;fontSize=12;image=img/lib/azure2/general/Folder_Blank.svg;" vertex="1" parent="1">
          <mxGeometry x="25.77000000000001" y="307" width="105.96" height="86" as="geometry" />
        </mxCell>
        <mxCell id="E4jLoLpAVNBP-Go-cii5-54" value="" style="image;aspect=fixed;html=1;points=[];align=center;fontSize=12;image=img/lib/azure2/general/File.svg;" vertex="1" parent="1">
          <mxGeometry x="85.25" y="338" width="56.00000000000001" height="69" as="geometry" />
        </mxCell>
        <mxCell id="E4jLoLpAVNBP-Go-cii5-55" value="&lt;font style=&quot;font-size: 36px;&quot;&gt;ERP&lt;/font&gt;" style="rounded=0;whiteSpace=wrap;html=1;strokeColor=none;fillColor=none;" vertex="1" parent="1">
          <mxGeometry x="18.75" y="393" width="120" height="60" as="geometry" />
        </mxCell>
      </root>
    </mxGraphModel>
  </diagram>
</mxfile>
